<svg width="200" height="70" viewBox="0 0 200 70" fill="none" xmlns="http://www.w3.org/2000/svg">
<path d="M88.0503 36.225C88.0503 35.035 88.2922 33.999 88.7758 33.117C89.2595 32.221 89.9281 31.528 90.7817 31.038C91.6495 30.548 92.6381 30.303 93.7477 30.303C95.1846 30.303 96.3653 30.646 97.29 31.332C98.2289 32.018 98.8477 32.97 99.1464 34.188H97.0552C96.8561 33.488 96.4649 32.935 95.8816 32.529C95.3126 32.123 94.6013 31.92 93.7477 31.92C92.6381 31.92 91.7419 32.298 91.0591 33.054C90.3762 33.796 90.0348 34.853 90.0348 36.225C90.0348 37.611 90.3762 38.682 91.0591 39.438C91.7419 40.194 92.6381 40.572 93.7477 40.572C94.6013 40.572 95.3126 40.376 95.8816 39.984C96.4506 39.592 96.8419 39.032 97.0552 38.304H99.1464C98.8335 39.48 98.2075 40.425 97.2686 41.139C96.3297 41.839 95.1561 42.189 93.7477 42.189C92.6381 42.189 91.6495 41.944 90.7817 41.454C89.9281 40.964 89.2595 40.271 88.7758 39.375C88.2922 38.479 88.0503 37.429 88.0503 36.225Z" fill="#000112" fill-opacity="0.9"/>
<path d="M112.407 35.805C112.407 36.169 112.385 36.554 112.343 36.96H102.996C103.068 38.094 103.459 38.983 104.17 39.627C104.896 40.257 105.77 40.572 106.795 40.572C107.634 40.572 108.331 40.383 108.886 40.005C109.455 39.613 109.853 39.095 110.081 38.451H112.172C111.859 39.557 111.233 40.46 110.294 41.16C109.355 41.846 108.189 42.189 106.795 42.189C105.685 42.189 104.689 41.944 103.807 41.454C102.939 40.964 102.257 40.271 101.759 39.375C101.261 38.465 101.012 37.415 101.012 36.225C101.012 35.035 101.254 33.992 101.737 33.096C102.221 32.2 102.897 31.514 103.765 31.038C104.647 30.548 105.657 30.303 106.795 30.303C107.904 30.303 108.886 30.541 109.739 31.017C110.593 31.493 111.247 32.151 111.703 32.991C112.172 33.817 112.407 34.755 112.407 35.805ZM110.401 35.406C110.401 34.678 110.237 34.055 109.91 33.537C109.583 33.005 109.135 32.606 108.566 32.34C108.011 32.06 107.392 31.92 106.709 31.92C105.728 31.92 104.888 32.228 104.191 32.844C103.509 33.46 103.117 34.314 103.018 35.406H110.401Z" fill="#000112" fill-opacity="0.9"/>
<path d="M127.261 27.363L121.649 42H119.408L113.796 27.363H115.866L120.539 39.984L125.212 27.363H127.261Z" fill="#000112" fill-opacity="0.9"/>
<path d="M136.837 34.461C137.378 34.545 137.869 34.762 138.31 35.112C138.765 35.462 139.121 35.896 139.377 36.414C139.647 36.932 139.782 37.485 139.782 38.073C139.782 38.815 139.59 39.487 139.206 40.089C138.822 40.677 138.26 41.146 137.52 41.496C136.795 41.832 135.934 42 134.938 42H129.39V27.363H134.725C135.735 27.363 136.595 27.531 137.307 27.867C138.018 28.189 138.551 28.63 138.907 29.19C139.263 29.75 139.441 30.38 139.441 31.08C139.441 31.948 139.199 32.669 138.715 33.243C138.246 33.803 137.62 34.209 136.837 34.461ZM131.332 33.684H134.597C135.507 33.684 136.211 33.474 136.709 33.054C137.207 32.634 137.456 32.053 137.456 31.311C137.456 30.569 137.207 29.988 136.709 29.568C136.211 29.148 135.493 28.938 134.554 28.938H131.332V33.684ZM134.767 40.425C135.735 40.425 136.489 40.201 137.029 39.753C137.57 39.305 137.84 38.682 137.84 37.884C137.84 37.072 137.556 36.435 136.987 35.973C136.418 35.497 135.657 35.259 134.703 35.259H131.332V40.425H134.767Z" fill="#000112" fill-opacity="0.9"/>
<path d="M152.847 30.492V42H150.905V40.299C150.536 40.887 150.016 41.349 149.348 41.685C148.693 42.007 147.968 42.168 147.171 42.168C146.261 42.168 145.443 41.986 144.717 41.622C143.992 41.244 143.416 40.684 142.989 39.942C142.576 39.2 142.37 38.297 142.37 37.233V30.492H144.29V36.981C144.29 38.115 144.582 38.99 145.165 39.606C145.749 40.208 146.545 40.509 147.555 40.509C148.594 40.509 149.412 40.194 150.009 39.564C150.607 38.934 150.905 38.017 150.905 36.813V30.492H152.847Z" fill="#000112" fill-opacity="0.9"/>
<path d="M157.129 28.623C156.759 28.623 156.446 28.497 156.19 28.245C155.934 27.993 155.806 27.685 155.806 27.321C155.806 26.957 155.934 26.649 156.19 26.397C156.446 26.145 156.759 26.019 157.129 26.019C157.484 26.019 157.783 26.145 158.025 26.397C158.281 26.649 158.409 26.957 158.409 27.321C158.409 27.685 158.281 27.993 158.025 28.245C157.783 28.497 157.484 28.623 157.129 28.623ZM158.068 30.492V42H156.126V30.492H158.068Z" fill="#000112" fill-opacity="0.9"/>
<path d="M163.319 26.46V42H161.377V26.46H163.319Z" fill="#000112" fill-opacity="0.9"/>
<path d="M165.903 36.204C165.903 35.028 166.145 33.999 166.629 33.117C167.112 32.221 167.774 31.528 168.613 31.038C169.467 30.548 170.42 30.303 171.472 30.303C172.383 30.303 173.229 30.513 174.012 30.933C174.794 31.339 175.392 31.878 175.804 32.55V26.46H177.767V42H175.804V39.837C175.42 40.523 174.851 41.09 174.097 41.538C173.343 41.972 172.461 42.189 171.451 42.189C170.413 42.189 169.467 41.937 168.613 41.433C167.774 40.929 167.112 40.222 166.629 39.312C166.145 38.402 165.903 37.366 165.903 36.204ZM175.804 36.225C175.804 35.357 175.626 34.601 175.271 33.957C174.915 33.313 174.431 32.823 173.82 32.487C173.222 32.137 172.561 31.962 171.835 31.962C171.11 31.962 170.448 32.13 169.851 32.466C169.253 32.802 168.777 33.292 168.421 33.936C168.065 34.58 167.888 35.336 167.888 36.204C167.888 37.086 168.065 37.856 168.421 38.514C168.777 39.158 169.253 39.655 169.851 40.005C170.448 40.341 171.11 40.509 171.835 40.509C172.561 40.509 173.222 40.341 173.82 40.005C174.431 39.655 174.915 39.158 175.271 38.514C175.626 37.856 175.804 37.093 175.804 36.225Z" fill="#000112" fill-opacity="0.9"/>
<path d="M191.718 35.805C191.718 36.169 191.697 36.554 191.654 36.96H182.308C182.379 38.094 182.77 38.983 183.481 39.627C184.207 40.257 185.082 40.572 186.106 40.572C186.945 40.572 187.642 40.383 188.197 40.005C188.766 39.613 189.165 39.095 189.392 38.451H191.483C191.17 39.557 190.544 40.46 189.606 41.16C188.667 41.846 187.5 42.189 186.106 42.189C184.996 42.189 184.001 41.944 183.119 41.454C182.251 40.964 181.568 40.271 181.07 39.375C180.572 38.465 180.323 37.415 180.323 36.225C180.323 35.035 180.565 33.992 181.049 33.096C181.532 32.2 182.208 31.514 183.076 31.038C183.958 30.548 184.968 30.303 186.106 30.303C187.216 30.303 188.197 30.541 189.051 31.017C189.904 31.493 190.559 32.151 191.014 32.991C191.483 33.817 191.718 34.755 191.718 35.805ZM189.712 35.406C189.712 34.678 189.549 34.055 189.221 33.537C188.894 33.005 188.446 32.606 187.877 32.34C187.322 32.06 186.704 31.92 186.021 31.92C185.039 31.92 184.2 32.228 183.503 32.844C182.82 33.46 182.429 34.314 182.329 35.406H189.712Z" fill="#000112" fill-opacity="0.9"/>
<path d="M196.223 32.361C196.564 31.703 197.048 31.192 197.674 30.828C198.314 30.464 199.09 30.282 200 30.282V32.256H199.488C197.311 32.256 196.223 33.418 196.223 35.742V42H194.281V30.492H196.223V32.361Z" fill="#000112" fill-opacity="0.9"/>
<path fill-rule="evenodd" clip-rule="evenodd" d="M4.72116 0.460625C4.16474 0.659375 3.31291 1.34062 2.82798 1.97375C2.34372 2.60687 1.50875 3.125 0.973235 3.125C0.137589 3.125 0 7.84062 0 36.5625V70H75.5743L75.3882 60.84C75.2216 52.6712 75.0739 51.6631 74.0211 51.5206C72.9487 51.375 72.8408 52.1006 72.8408 59.43V67.5H2.69781V2.5H72.8408V10.57C72.8408 17.8994 72.9487 18.625 74.0211 18.4794C75.0739 18.3369 75.2216 17.3287 75.3882 9.16L75.5743 0L40.6539 0.0493765C21.4476 0.0762515 5.27759 0.26125 4.72116 0.460625ZM34.7343 23.2263C31.2548 24.4331 29.17 26.1575 27.6343 29.0981C25.5833 33.0238 25.9455 38.8044 28.4625 42.3294C32.2948 47.6956 41.321 49.0019 47.7579 45.1213C49.0819 44.3231 49.1763 44.0525 48.3865 43.3206C47.5967 42.5888 47.0073 42.6481 44.468 43.7163C40.6512 45.3206 38.2333 45.3194 34.6506 43.7125C31.3971 42.2531 29.0014 38.5581 29.0014 35C29.0014 31.4419 31.3971 27.7469 34.6506 26.2875C38.2333 24.6806 40.6512 24.6794 44.468 26.2838C46.9634 27.3331 47.6055 27.4025 48.3589 26.7044C49.1122 26.0069 48.8114 25.6344 46.5379 24.4506C43.3787 22.805 37.6587 22.2119 34.7343 23.2263ZM54.6306 35.0513V46.9769L63.0477 46.77C71.1958 46.5694 71.5243 46.5075 73.3176 44.8438C76.0242 42.3338 75.9311 38.6263 73.1032 36.285L71.0353 34.5731L72.6128 33.2713C73.7196 32.3575 74.1897 31.2913 74.1897 29.6938C74.1897 25.12 71.3503 23.125 64.8404 23.125C61.3953 23.125 60.845 23.2812 60.9934 24.2188C61.1289 25.075 61.9572 25.3569 64.8114 25.5162C69.4078 25.7731 71.4919 26.9512 71.4919 29.2925C71.4919 32.245 68.9755 33.5513 63.0053 33.6988C61.7043 33.7306 60.9252 34.0756 60.9252 34.62C60.9252 35.2313 62.0698 35.5662 64.7777 35.7481C69.9002 36.0913 72.1663 37.485 72.1663 40.2913C72.1663 43.5519 70.3689 44.375 63.2481 44.375H57.3284V33.75C57.3284 23.5419 57.2758 23.125 55.9795 23.125C54.6778 23.125 54.6306 23.5419 54.6306 35.0513Z" fill="#000112" fill-opacity="0.9"/>
</svg>
